<svg xmlns:xlink="http://www.w3.org/1999/xlink" xmlns="http://www.w3.org/2000/svg" viewBox="0 0 312.5 354.3241350445527" preserveAspectRatio="xMidYMid meet" class="css-2shm9y" id="bagghbag" width="312.5"  height="354.3241350445527" ><defs id="SvgjsDefs1301"></defs><g id="SvgjsG1302" featurekey="rootContainer" transform="matrix(6.3004014813942035,0,0,6.3004014813942035,0.000046358657472104394,0.02629501308574099)" fill="#CBD5E1"><path xmlns="http://www.w3.org/2000/svg" d="M23.11 55.78L1.69 43.41A3.39 3.39 0 0 1 0 40.48V15.75a3.39 3.39 0 0 1 1.69-2.94L23.11.45a3.39 3.39 0 0 1 3.39 0l21.41 12.37a3.39 3.39 0 0 1 1.69 2.94v24.72a3.39 3.39 0 0 1-1.69 2.94L26.5 55.78a3.39 3.39 0 0 1-3.39 0z" fill="#CBD5E1"></path></g><g id="SvgjsG1303" featurekey="nameFeature-0" transform="matrix(4.288688776400825,0,0,4.288688776400825,47.42262244719835,65.41993825390175)" fill="#0F172A"><path d="M3.5885 40.038594 l-1.5885 0 l0 -27.999 l1.5885 0 l0 27.999 z M6.6112 38.45 l10.167 -0.000039062 l0 1.5885 l-11.755 0 l0 -1.071 l-0.000078125 0 l0 -26.928 l1.5886 0 l0 26.411 z M26.187 26.032 l6.5268 14.003 l-1.753 0 l-0.010352 -0.022226 l-5.6396 -12.1 l-5.6492 12.123 l-1.753 0 l0.025625 -0.054844 l6.5012 -13.948 l-6.522 -13.993 l1.7529 0 l0.01043 0.022305 l5.6344 12.09 l5.6452 -12.112 l1.7529 0 l-0.025625 0.054844 z M26.187 33.0432 l3.2588 6.9924 l-1.7521 0 l-2.383 -5.1124 l-2.3825 5.1124 l-1.7529 0 l3.2589 -6.9924 l-0.00023438 -0.000625 l0.87648 -1.8794 z M33.856 12.027000000000001 l14.778 0 l0 1.5885 l-8.0665 0 l0 26.423 l-1.5885 0 l0 -26.423 l-5.1231 0 l0 -1.5885 z M42.002 15.05 l6.6323 0 l0 1.5885 l-5.0439 0 l0 23.4 l-1.5884 0 l0 -24.989 z" fill="#0F172A"></path></g></svg>